<?xml version="1.0" encoding="utf-8"?>
<!-- Generator: Adobe Illustrator 25.3.1, SVG Export Plug-In . SVG Version: 6.00 Build 0)  -->
<svg version="1.1" id="레이어_1" xmlns="http://www.w3.org/2000/svg" xmlns:xlink="http://www.w3.org/1999/xlink" x="0px"
	 y="0px" viewBox="0 0 429 429" style="enable-background:new 0 0 429 429;" xml:space="preserve">
<style type="text/css">
	.st0{fill:#12B886;}
	.st1{fill:#FFFFFF;}
</style>
<path class="st0" d="M214.6,1c-86.8,0-165,52.2-198.2,132.4S1.6,305.8,62.9,367.2c83.8,83.8,219.6,83.8,303.3,0
	c83.8-83.8,83.8-219.6,0-303.3C326.1,23.5,271.5,0.8,214.6,1z M322.2,225.5h-95.5V326c0,5.5-4.5,10-10,10s-10-4.5-10-10V225.5H106.4
	c-5.5,0-10-4.5-10-10s4.5-10,10-10h100.5V110c0-5.5,4.5-10,10-10s10,4.5,10,10v95.5h95.5c5.5,0,10,4.5,9.9,10
	C332.2,221,327.7,225.5,322.2,225.5z"/>
<g>
	<circle class="st1" cx="216.9" cy="110" r="10"/>
	<circle class="st1" cx="216.9" cy="326" r="10"/>
	<rect x="207" y="111.2" class="st1" width="19.8" height="216.7"/>
</g>
<g>
	<circle class="st1" cx="108.9" cy="215.5" r="10"/>
	<circle class="st1" cx="325" cy="215.5" r="10"/>
	<rect x="110" y="205.6" class="st1" width="216.7" height="19.8"/>
</g>
</svg>
