<?xml version="1.0" encoding="utf-8"?>
<!-- Generator: Adobe Illustrator 25.3.1, SVG Export Plug-In . SVG Version: 6.00 Build 0)  -->
<svg version="1.1" id="레이어_1" xmlns="http://www.w3.org/2000/svg" xmlns:xlink="http://www.w3.org/1999/xlink" x="0px"
	 y="0px" viewBox="0 0 349 345" style="enable-background:new 0 0 349 345;" xml:space="preserve">
<style type="text/css">
	.st0{fill:#EEEEEE;}
	.st1{fill:#41AC4A;}
</style>
<path class="st0" d="M280.3,119.2v172.4c0,11.6-9.5,21.1-21.1,21.1H50.1c-11.6,0-21.1-9.5-21.1-21.1V82.6c0-11.6,9.5-21.1,21.1-21.1
	h185.8c6.8-7.9,14-15.6,21.6-23.3H50.1c-24.5,0-44.4,19.9-44.4,44.4v209.1c0,24.5,19.9,44.4,44.4,44.4h209.1
	c24.5,0,44.4-19.9,44.4-44.4V92.8C295.2,101.4,287.5,110.3,280.3,119.2z"/>
<path class="st1" d="M167.1,275.8c-8.7,0-16.7-4.7-20.9-12.4c-32.4-58.8-91.8-92.1-92.4-92.4c-5.6-3-9.7-8.1-11.5-14.2
	c-1.8-6.1-1.1-12.6,1.9-18.2c4.2-7.7,12.2-12.5,21-12.5c4,0,7.8,1,11.4,2.9c1.5,0.8,38,20.9,73.2,59l11.6,12.5l7.5-15.3
	c23.5-48.2,65.2-116.7,130.6-168.9c4.3-3.4,9.4-5.2,14.9-5.2c7.3,0,14.1,3.3,18.7,9c8.2,10.3,6.5,25.4-3.8,33.6
	C229.8,133,190.4,257.7,190,258.9c-2.8,9.2-10.8,15.7-20.4,16.7C168.8,275.7,167.9,275.8,167.1,275.8z"/>
</svg>
